<svg width="18" height="13" viewBox="0 0 18 13" fill="none" xmlns="http://www.w3.org/2000/svg">
  <path d="M15.6377 9.98011C15.4675 9.92717 15.3081 9.79667 15.2044 9.59152C15.1812 9.54287 15.1624 9.49517 15.1492 9.45171L15.0961 9.27606L15.9399 8.76521L15.9414 8.76429L16.3262 8.52945L16.3825 8.60694C16.413 8.64905 16.4368 8.68819 16.4543 8.72466L16.4543 8.72469L16.4579 8.73185C16.5613 8.93856 16.5861 9.17853 16.5252 9.40663L16.5251 9.40662L16.5236 9.41282C16.4663 9.63881 16.3349 9.81104 16.1645 9.91526C16.0542 9.9804 15.9399 10.0104 15.8321 10.0104C15.7661 10.0104 15.7035 10.0011 15.6415 9.9813L15.6377 9.98011ZM10.9849 11.7651L12.2157 11.0199L12.2714 11.0966C12.302 11.1387 12.3258 11.1778 12.3433 11.2143L12.3432 11.2143L12.3468 11.2215C12.4503 11.4282 12.475 11.6682 12.4141 11.8963L12.4141 11.8963L12.4125 11.9025C12.3553 12.1285 12.2238 12.3007 12.0534 12.4049C11.9431 12.4701 11.8289 12.5 11.721 12.5C11.6551 12.5 11.5924 12.4908 11.5304 12.471L11.5305 12.4709L11.5266 12.4698C11.3564 12.4168 11.197 12.2863 11.0933 12.0812C11.0701 12.0325 11.0513 11.9848 11.0382 11.9414L10.9849 11.7651ZM15.848 5.64729L9.04345 9.76789L8.973 9.68806L5.65289 5.92622L14.5791 0.528805L14.5807 0.527833C14.6381 0.492845 14.6927 0.490967 14.7522 0.521487C14.8131 0.552691 14.8736 0.622491 14.8935 0.735759L14.8934 0.735773L14.8951 0.744628L15.8021 5.4112L15.848 5.64729ZM15.4892 10.4575L15.4892 10.4576L15.4892 10.4575ZM15.512 4.92139L15.5117 4.91958L14.9111 1.83878L14.4199 1.93264L14.9107 1.83696L14.9108 1.83768C14.8357 1.44785 14.4578 1.12032 14.001 1.22625C13.5564 1.32933 13.3534 1.77097 13.4233 2.14602L13.4233 2.14602L13.4241 2.15016L14.0248 5.23164C14.0249 5.23188 14.0249 5.23211 14.025 5.23235C14.0917 5.57705 14.3851 5.86048 14.7665 5.86048C14.8435 5.86048 14.9118 5.84471 14.927 5.84119C14.9281 5.84094 14.9289 5.84076 14.9294 5.84064L14.9294 5.84067L14.9348 5.83943C15.3752 5.7373 15.5841 5.29868 15.512 4.92139Z" fill="#1E293B" stroke="#FF0D58"/>
  <path d="M3.22615 6.92395C3.22615 6.76555 3.11185 6.63965 2.96806 6.63965H0.258092C0.114298 6.63965 0 6.76555 0 6.92395C0 7.08234 0.114298 7.20825 0.258092 7.20825H2.96806C3.11185 7.20825 3.22615 7.08234 3.22615 6.92395Z" fill="#2B79C2"/>
  <path d="M2.9386 10.8717C2.9386 11.0301 3.0529 11.156 3.19669 11.156H6.54083C6.68462 11.156 6.79892 11.0301 6.79892 10.8717C6.79892 10.7133 6.68462 10.5874 6.54083 10.5874H3.19669C3.0529 10.5874 2.9386 10.7133 2.9386 10.8717Z" fill="#2B79C2"/>
  <path d="M1.02124 9.23938C1.02124 9.39777 1.13554 9.52368 1.27933 9.52368H5.80332C5.94711 9.52368 6.06141 9.39777 6.06141 9.23938C6.06141 9.08098 5.94711 8.95508 5.80332 8.95508H1.27933C1.13554 8.95508 1.02124 9.08098 1.02124 9.23938Z" fill="#2B79C2"/>
  <path d="M5.30566 8.26049C5.44945 8.26049 5.56375 8.13459 5.56375 7.97619C5.56375 7.8178 5.44945 7.69189 5.30566 7.69189H4.09263C3.94883 7.69189 3.83453 7.8178 3.83453 7.97619C3.83453 8.13459 3.94883 8.26049 4.09263 8.26049H5.30566Z" fill="#2B79C2"/>
  <path d="M7.37403 9.42139H6.80991C6.66612 9.42139 6.55182 9.54729 6.55182 9.70569C6.55182 9.86408 6.66612 9.98998 6.80991 9.98998H7.37403C7.51782 9.98998 7.63212 9.86408 7.63212 9.70569C7.63212 9.54729 7.51782 9.42139 7.37403 9.42139Z" fill="#2B79C2"/>
  <path d="M7.37405 11.8589H5.23557C5.09178 11.8589 4.97748 11.9848 4.97748 12.1432C4.97748 12.3016 5.09178 12.4275 5.23557 12.4275H7.37405C7.51784 12.4275 7.63214 12.3016 7.63214 12.1432C7.63214 11.9848 7.51784 11.8589 7.37405 11.8589Z" fill="#2B79C2"/>
  <path d="M3.8493 11.8589H2.23807C2.09428 11.8589 1.97998 11.9848 1.97998 12.1432C1.97998 12.3016 2.09428 12.4275 2.23807 12.4275H3.8493C3.9931 12.4275 4.1074 12.3016 4.1074 12.1432C4.1074 11.9848 3.98941 11.8589 3.8493 11.8589Z" fill="#2B79C2"/>
  <path d="M1.44907 10.4573H0.601049C0.457254 10.4573 0.342957 10.5832 0.342957 10.7416C0.342957 10.9 0.457254 11.0259 0.601049 11.0259H1.44907C1.59286 11.0259 1.70716 10.9 1.70716 10.7416C1.70716 10.5832 1.59286 10.4573 1.44907 10.4573Z" fill="#2B79C2"/>
  <path d="M2.23806 8.26049C2.38185 8.26049 2.49615 8.13459 2.49615 7.97619C2.49615 7.8178 2.38185 7.69189 2.23806 7.69189H1.80668C1.66288 7.69189 1.54858 7.8178 1.54858 7.97619C1.54858 8.13459 1.66288 8.26049 1.80668 8.26049H2.23806Z" fill="#2B79C2"/>
  </svg>
